<?xml version="1.0" encoding="UTF-8"?>
<svg id="Layer_1" data-name="Layer 1" xmlns="http://www.w3.org/2000/svg" viewBox="0 0 1277.21 444.25">
  <path d="m439.05,104.88c1.27-3.39.17-5.47-1.13-7.49-.73-1.14-1.01-2.35-.56-3.63.64-1.86,3.06-2.83,4.33-1.5,1.72,1.8,4.02,3.13,4.9,5.72,2.87,8.45,9.44,14.52,14.23,21.73,2.39,3.6,5.29,6.9,7.56,10.61,3.21,5.25,6.66,10.3,10.73,14.94,1.95,2.22,3.42,4.7,2.09,7.94-.3.73.08,1.77.22,2.65.79,4.7-.61,5.84-6.47,4.04,3.66,3.2,3.92,6.17.52,9.22,3.17,1.1,5.6,1.74,7.84,2.78,2.5,1.15,4.76,2.63,4.52,6.05-.21,2.97,1.77,4.9,4.46,6.7-1.97,1.4-3.59.88-5.05.65-10.2-1.64-20.41-3-30.76-3.26-1.62-.04-3.23-.46-4.84-.73-4.45-.73-8.24.14-10.49,4.47-.71,1.38-1.89,1.01-2.81.78-5.26-1.34-10.71-1.33-16.02-2.75-5.95-1.6-12.31-3.25-18.29,1.09-2.32,1.69-4.79.27-5.38-3.16-.42-2.45-1.32-2.74-3.48-2.89-8.29-.54-16.57-1.36-24.84-1.88-6.5-.41-13.29-.46-19.8,1.11-2.22.53-3.5.31-3.88-2.16-.37-2.34-2.15-3.09-4.04-2.44-5.69,1.94-11.52-.09-17.25.93-4.03.71-8.19.67-12.3.93-2.16.13-4.42.45-5.66-2.03.37-1.39,1.63-1.57,2.57-1.53,7.95.34,15.77-2.54,23.64-1.39,7.24,1.06,14.62-.51,21.74,1.58,1.3.38,2.51-.06,3.7-.45,1.01-.33,2.33-.61,2.38-1.9.06-1.44-1.29-1.59-2.35-1.65-3.03-.17-2.14-3.39-3.69-4.87-1.12.79-2.12,1.46-3.07,2.19-1.04.78-2.32.9-2.78-.25-1.12-2.84-3.67-1.62-5.52-2.34-2.8-1.08-3.61,1.16-4.87,2.68-.64.78-1.37,1.02-2.38.84-5.18-.92-10.54.18-15.67-1.46-.99-.32-2.33-.48-3.2-.07-6.35,2.98-12.85.17-19.27.55-3.48.21-6.48-2.96-10.23-3.25-1.28-.1-1.75-1.76-1.63-3.11.16-1.69,1.54-1.91,2.82-1.87,2.88.1,5.73.52,8.46-1.02,1.43-.81,3.1-1.32,3.88-2.82,1.15-2.21,2.54-2.5,4.89-1.74,6.56,2.14,13.54,2.15,20.26,3.56,2.17.46,3.54-.49,3.86-2.69.29-1.97.44-3.96.6-5.94.7-8.8,2.14-17.56,1.38-26.45-.06-.71.04-1.46.19-2.17.84-3.97-.44-7.63-1.09-11.49-1.25-7.4-2.32-14.95-.54-22.6,3.39-14.47,6.04-29.05,6.61-44.01.17-4.52-.03-9.41,1.97-13.78.67-1.46.08-2.31-.84-3.34-2.66-2.96-5.26-5.99-7.82-9.04-1.61-1.91-1.46-4.73.22-6.1,1.64-1.34,4.11-.91,5.57,1.31,2.28,3.46,4.48,6.99,6.45,10.64,1.35,2.5,2.5,4.21,5.83,2.74,1.91-.84,4.37-.47,6.18-1.75,2.21-1.56,3.34-.59,4.04,1.46,2.6,7.57,7.86,13.28,13.18,18.95.74.78,1.28,1.75,2.52,1.9,4.12.51,6.91,2.79,8.73,6.48.46.94,1.33,1.72,2.14,2.43,5.29,4.72,8.6,11.1,13.59,16.06,1.67,1.66,3.34,3.32,5.17,4.79,2.75,2.21,4.72,4.55,5.25,8.4.49,3.56,4.14,5.71,5.86,8.88.93,1.72,2.7,3.01,3.48,4.77,1.66,3.75,4.17,5.8,8.2,5.17,1.48,2.64-.84,5.88,1.98,7.82,3.87,2.67,4.58,8.99,10.88,9.34.77-2.79-.5-5.01-1.93-6.91-1.49-1.98-2.79-4.37-4.39-5.92-5.42-5.23-8.19-12.4-13.61-17.56-1.36-1.3-3.1-3-1.34-5.14,1.04-1.26,4.09-.51,5.62,1.77,3,4.46,5.71,9.11,8.89,13.47,1.77,2.44,3.86,4.7,5.15,8.37Zm-19.84,2.09c-.68.63.3,2.04.17,2.35-1.56,3.51.78,6.68.74,10.04,0,.77.53,7.07,1.32,8.83,1.21,2.69,1.46,5.62,2.56,8.29.92,2.24.4,4.27-.42,6.32-1.09,2.73-4.18,3.46-5.76,1.01-1.49-2.31-3.29-2.82-5.75-3.17-4.83-.69-8.61-2.58-10.8-7.74-1.34-3.17-.14-6.15-.97-8.78-1.63-5.17-2-10.62-3.93-15.65-.89-2.32-.7-3.93.98-5.88.78-.9,1.29-1.98,1.54-3.11m0,0c.29-1.26.26-2.6-.07-3.86-.24-.94-.65-1.84-1.22-2.63-4.43-6.15-9.09-12.13-13.89-18-7.9-9.65-15.28-19.71-22.97-29.53-3.19-4.08-7.18-7.29-9.97-11.65q-3.75,3.63-1.62,7.51c.41.74,1.47,1.1,1.27,2.21-1.45,8.16-.79,16.56-2.77,24.65-1.94,7.93-1.99,16.1-3.27,24.13-.86,5.36-.47,11.2-.25,16.78.35,9-1,18.02.46,27,.17,1.04.1,2.25-.28,3.23-1.75,4.55-.45,9.36-1.31,14.02-.57,3.07,1.14,4.42,4.32,3.53,3.49-.97,7.69.5,10.49-3.13.84-1.1,2.39-.26,3.6.09,5.59,1.64,11.44,1.55,17.11,2.59,6.44,1.18,13.08,0,19.45,1.87,1.58.47,3.33.39,4.51-1.09,2.2-2.76,4.59-2.08,7.22-.68,6.84,3.64,14.26,4.54,21.91,5.24,5.7.53,11.51.48,17.18,1.84,4.75,1.13,9.61,1.75,14.41,2.68.98.19,1.82.27,2.36-.64.78-1.3-1.53-8.18-2.99-8.12-3.93.16-4.76-3.14-5.9-5.3-5.66-10.73-12.24-20.65-21.32-28.86-5.68-5.13-11.32-10.33-16.15-16.39m54.84,67.56c-1.6-1.49-4.08-.33-5.28-2.47-1.5-2.7-4.26-3.36-6.92-3.67-6.74-.77-13.63.43-20.33-1.34-.9-.24-1.79.12-1.95,1.3-.15,1.16,0,2.22,1.25,2.67.66.24,1.43.21,2.13.36,5.97,1.32,12.01,2.31,17.9,4.07,4.36,1.31,8.81.63,13.2-.93Zm-65.57-6.84c3.61.5,6.58.4,9.13,1.39,3.63,1.41,7.44,1.18,11.1,2.05,1.74.42,3.53.39,4.86-1.41,1-1.35,1.01-2.7-.5-2.97-3.24-.57-6.66-2.07-9.82.18-2.07,1.47-3.49.93-4.11-1.26-.64-2.28-2.34-2.26-3.82-1.84-2.17.63-4.55,1.08-6.85,3.84Zm46.82-49.33c1.37,6.68,6.21,13.66,11.13,16.06-3.18-7.15-7.07-12.77-11.13-16.06Zm-64.7,44.52c-.12,1.67.66,2.59,2.03,2.89,3.07.67,6.13,1.29,9.29.11.86-.32,1.81-.24,1.84-1.42.03-1.08-.78-1.53-1.68-1.79-3.86-1.11-7.68-.74-11.47.2Zm84.61-6.36c-.04-.2-.01-.43-.12-.53-2.41-2.42-4.35-5.17-5.98-8.16-.08-.15-.74-.2-.92-.04-.38.33-.85.8-.88,1.25-.15,2.06,3.68,7.82,5.72,8.54.9.32,1.74-.13,2.18-1.06Zm-75.48-71.05c.71,3.37,1.72,5.69,3.8,7.43.49.41,1.3.76,1.93.29.62-.45.82-1.41.44-1.93-1.5-2.07-2.42-4.76-6.17-5.78Zm-59.9,63.09c-1.93.97-2.03,3.04-3.23,4.31-.66.7-.38,1.7.51,2.3,1.14.78,2.41.28,2.8-.6.82-1.87,1.74-3.97-.08-6.02Zm112.8-15.83c-.14-.66-.18-1.22-.39-1.71-.73-1.68-1.59-3.3-3.75-3.31-.42,0-1.06.44-1.23.83-.79,1.92.85,2.9,1.77,4.14.32.42.76.76,1.16,1.12.57.51,1.29.78,1.9.25.34-.3.39-.94.53-1.33Zm-22.2,48.92c2.88,1.99,5.31,2.12,8.1,1.31q-2.83-3.64-8.1-1.31ZM353.88,28.53c-.38.25-.72.4-.97.64-1.32,1.32-1.09,2.53.39,3.52.42.28,1.21.62,1.48.43,1.46-1.05.31-2.21-.07-3.3-.16-.47-.55-.86-.83-1.29Zm18.46,136.76c1.75,1.11,3.07,1.42,4.34.25.19-.18.29-.75.15-.94-1.29-1.8-2.5.12-3.77.13-.13,0-.27.2-.72.56Zm.8,5.25c1.88,1.89,4.25,1,6.43.95.05,0,.19-.37.14-.45-1.33-1.9-3.46-.63-5.12-1.27-.5-.19-1.01-.1-1.45.77Zm23.62,5.67c1.28,1.26,2.65.48,4.94.55-2.21-.74-3.46-1.03-4.94-.55Zm-11.23-5.46c-.26-.8-.95-.75-1.6-.77-.62-.02-.96.36-1.02.89-.1.86.45,1.31,1.22,1.2.66-.1,1.29-.49,1.4-1.33Zm27.44-69.38c-.32-.66.21-1.96-1.21-1.8-.59.06-.75.7-.68,1.24.09.73.46,1.38,1.22,1.53.74.15.74-.43.67-.97Z"/>
  <path d="m414.02,118.52c.85.03.55.66.4,1.1-.09.26-.36.46-.58.73-.17-.41-.43-.73-.38-.99.05-.32.37-.85.56-.84Z"/>
  <path d="m568.54,135.22c-.3,3.38-2.07,6.25-3.84,8.87-5.95,8.86-10.24,18.68-16.14,27.56-1.8,2.71-3,5.78-5.02,8.38-.68.88-1.55,2.17-.38,3.44.88.96,1.81.63,2.95.38,3.23-.69,6.43-1.23,8.28-4.46.68-1.19,2-1.52,3.19-1.94,7.17-2.51,14.18-5.36,21.19-8.3,4.58-1.93,9.55-3.22,14.05-5.41,4.85-2.36,10.16-3.33,15.02-5.61,2.95-1.38,6.11-2.24,8.28-4.95.52-.65,1.48-1.26,2.29-1.34,3.71-.37,6.05-2.1,6.76-5.91.21-1.15,1.16-1.93,2.41-1.72,2.39.39,4.23-.94,6.11-1.94,7.02-3.76,14.92-5.41,21.92-9.17,2.85-1.53,5.9-1.21,8.89-1.67,3.51-.54,4.65-2.56,2.44-5.1-5.19-5.94-4.99-13.26-6.16-20.28-1.77-10.65-4.68-21-7.96-31.89-1.84,1.92-1.01,3.44-.87,4.91.07.76-.49,1.31-1.29,1.47-.79.16-1.43-.1-1.84-.79-.98-1.69-.57-3.52-.55-5.33.11-10.44.55-20.88-2.93-31.04-1.42-4.14-.93-8.67-.21-12.96.55-3.25,2.49-3.74,4.57-1.25,1.24,1.49,2.02,1.37,3.61.69,2.78-1.2,3.59-.69,3.07,1.93-2.77,13.98,2.21,26.82,5.66,39.88.78,2.97,2.02,5.83,2.69,8.81.86,3.83,1.91,7.2,6.17,8.72,1.8.64,2.08,2.74,2.06,4.69-.03,4.79.7,9.23,4.11,13.14,1.82,2.09,2.04,5.36,3.55,7.88.72,1.2.35,2.35-1.33,2.87-3.93,1.23-3.91,1.29-3.73,6.66,3.76-1.27,7.45-2.52,11.13-3.77.69-.23,1.35-.52,2.05-.73,1.64-.48,3.31-.62,4.49.88.81,1.02-.67,3.92-2.68,4.67-5.09,1.89-10.28,3.5-15.41,5.28-3.09,1.07-6.03,2.4-8.37,4.85-1.28,1.34-2.05,2.68-.81,4.27,1.18,1.51,2.3-.01,3.33-.45,4.67-1.98,9.21-4.22,13.29-7.3,1.57-1.19,3.43-2.57,5-.04,1.94,3.13,1.25,6.07-1.39,7.44-5.04,2.6-10.43,4.54-14.93,8.18-1.81,1.47-3.97,2.58-6.47,2.59-1.88,0-3.48.95-5.12,1.7-2.95,1.34-5.74,3-9.17,3.14-1.99.08-3.63,1.55-5.38,2.49-3.02,1.63-5.96,3.45-9.41,4.17-.86.18-1.67,1.03-1.24,2.04.41.97,1.39,1,2.31.58,1.79-.82,3.5-1.96,5.38-2.42,5.11-1.25,10.02-2.96,14.81-5.11.97-.44,2.08-.6,3.15-.77.72-.12,1.52.03,1.84.79.41.96.08,1.81-.87,2.24-1.81.83-3.59,1.82-5.5,2.3-4.56,1.17-9.12,2.33-13.5,4.05-2.79,1.1-5.63,1.33-8.41.17-1.48-.62-3.04-.87-4.13.1-3.92,3.44-9.21,3.99-13.43,6.67-4.25,2.7-8.75,4.16-13.77,4.29-3.98.11-5.91,2.78-6.76,6.19-1.69-.06-2.04-1.21-2.71-2.01-.97-1.16-2.31-1.31-3.44-.58-4.65,3.01-10.22,3.56-15.13,5.85-1.79.84-3.87,1.23-3.91,3.86-.02,1.03-.83,1.5-1.79,1.74-1.23.31-2.46,1.07-3.65,1-9.11-.49-16.42,5.42-24.98,6.9-2.29.4-3.91,2.54-5.79,3.96-1.01.76-1.96,1.65-3.06,2.27-1.73.97-3.52,2.23-4.88-.68-1.17-2.5-1.05-2.97,1.84-4.52,1.41-.76,3.22-.77,4.26-2.23.09-.13.06-.35.08-.53-6.58-1.65-7.01-2.8-3.33-8.93,4.38-7.29,6.77-15.51,10.81-22.97,9.23-17.03,16.8-34.87,25.23-52.29.78-1.62,1.59-3.29,2.7-4.69,3.58-4.5,3.8-10.35,6.37-15.27,3.53-6.77,7.8-13.07,11.98-19.4,4.97-7.53,10.71-14.55,16.02-21.85,1.32-1.81,2.96-3.45,1.12-6.29-.93-1.43.55-3.82,1.77-5.38,4.19-5.33,6.16-11.88,9.74-17.57,1.46-2.32,1.39-5.57,2.2-8.34.43-1.46.58-3.84,2.67-3.49,2.13.36,2.81,2.22,2.51,4.58-.34,2.71.61,3.17,2.99,2,1.61-.78,2.44-2.06,2.93-3.7.35-1.18.03-3.04,1.38-3.36,4.09-.98,4.71-4.64,6.4-7.52.55-.93,1.27-1.76,1.98-2.59.79-.92,1.77-1.3,2.86-.54,1.17.81,1.71,1.92,1.03,3.29-1.22,2.46-3.11,4.44-4.79,6.57-1.33,1.69-3.53,3.9-1.68,5.66,2.15,2.05,3.33-1.66,5.24-2.28,1.5-.49,2.13-4.2,3.97-2.36,1.86,1.86-1.02,3.3-2.39,4.48-4.43,3.8-7.27,8.84-10.66,13.45-.5.68-.54,1.6-1.28,2.3-3.11,2.94-4.56,6.38-2.69,10.64.52,1.19-.26,2.13-.87,2.97-5.13,7.08-7.92,15.39-12,23.03-2.48,4.64-5.15,9.16-7.69,13.77-2.44,4.42-4.95,8.81-7.54,13.15-1.36,2.27-1.78,4.28-1.12,7.12,1.11,4.71,1.22,9.68,1.54,14.56.22,3.26.17,6.53.85,9.75.56,2.65-.08,4.94-2.99,5.41-2.16.34-3.1,1.48-3.91,3.22-.45.97-1.13,1.89-1.89,2.63-1.47,1.44-3.21,2.59-5.37,1.88-2.3-.75-1.86-2.93-1.83-4.64.05-3.08-1.02-6.07-.57-9.18.13-.86-.06-1.88-1.17-2.17-.82-.21-1.34.33-1.8.93-.22.29-.57.51-.7.83-2.27,5.47-7.14,7.78-12.09,9.99-.02-3.86,1.81-7.07,4.21-9.75,2.31-2.58,4.43-5.25,6.1-8.24.77-1.39,1.89-2.23,3.13-2.9,4.34-2.34,5.93-5.82,5.29-10.71-.59-4.53,1.82-7.94,6.18-9.52.85-.31,1.79-.46,2.54-.92,1.91-1.17,2.78-4.85,1.06-5.81-1.93-1.08-1.34-1.59-.33-2.51,3.94-3.58,4.81-9.21,8.61-12.89.32-.31.35-1.02.36-1.55.01-.95-.38-1.77-1.19-2.32-1.07-.74-1.67.24-2.26.78-.65.6-1.09,1.43-1.6,2.17-3.43,5.08-6.99,10.09-10.25,15.28-7.3,11.62-16.07,22.35-21.24,35.25-.66,1.66-1.72,3.12-2.87,4.56-2.38,2.98-4.23,6.32-5.71,9.85-.46,1.1-1.5,2.49-.09,3.37,1.5.93,2.96.64,4.13-1.13.95-1.44,2.06-3.03,4.12-3.19Zm-18.76,54.15c-3.92-.44-7.58.2-8.95,1.65-.76.81-1.14,1.89.09,3.12,2.81-1.48,6.23-2,8.86-4.77Zm93.72-40.2c2.8,1.27,4.78.05,6.71-1.24.58-.39.98-1.12.57-1.86-.37-.67-1.09-.93-1.83-.84-2.48.32-3.9,2.04-5.46,3.94Zm19.26-7.21c.8-.2,1.49-.41,1.41-1.29-.04-.5-.22-.97-.93-.89-1,.12-1.52.74-1.69,1.62-.02.11.85.39,1.22.56Z"/>
  <path d="m499.52,247.1c-.51-1.97-.71-3.33-3.91-3.44-4.63-.17-8.17.62-10.39,4.93-.52,1.01-1.38,1.62-2.49,1.96-3.01.9-9.49-1.79-10.96-4.59-1.74-3.32-.62-5.45,3.17-5.91,4.7-.57,9.25-1.71,13.7-3.28,2.26-.79,3.22-2.15,2.51-4.58-.51-1.74-.92-3.51-1.2-5.3-.29-1.87-1.34-4.15,1.23-5.19,2.23-.9,4.38-.69,4.98,2.3.63-.35.98-.45,1.22-.68,1.26-1.21,1.97-3.72,4.04-3.14,2.87.81.86,3.85,1.71,5.58,1.14.8,2.34.4,3.19.05,3.28-1.36,6.12-2.37,7.82,2.22.66,1.77,2.49.79,3.86.41,8.4-2.32,16.95-3.82,25.59-4.92,10.24-1.31,20.48-2.64,30.73-3.94,6.81-.86,13.47-2.9,20.43-2.63,1.68.07,2.59-1.02,3.47-2.24.57-.79,2.19-1.18,2.32-.71,1.34,4.62,6.36.43,8.1,3.47.83,1.46.38,3.14-.33,4.71-2.59,5.72-1.39,11.77-1.42,17.71,0,.51.14,1.23.49,1.5,2.22,1.77,1.7,3.56.49,5.69-.68,1.2-.71,2.76-1.02,4.07.45.33.71.67,1.01.71,1.35.19,2.7-1.98,3.9-.41,1.13,1.46.25,3.25-.75,4.5-2.88,3.61-4.55,7.83-6.36,11.98-1.54,3.52-2.69,7.09-2.3,11.05.32,3.29-1.01,5.94-3.53,8.12-2.86,2.48-5.62,5.1-8.34,7.73-2.21,2.14-4.16,4.41-5.49,7.33-1.25,2.74-2.73,5.51-5.66,7.1-2.14,1.16-2.98,3.58-4.5,5.36-6.79,7.97-11.99,17.27-20.15,24.11-3.32,6.91-9.78,11.45-13.58,18.04-1.2,2.07-2.81,4.37-5.55,4.96-2.2.47-2.93,1.94-3.02,3.92-.1,2.35-.12,4.71-.22,7.06-.05,1.27-.04,2.56-.32,3.78-.29,1.24-.92,2.57-2.5,2.32-1.35-.22-1.47-1.48-1.25-2.6.26-1.32.58-2.81-1.31-2.73-1.39.06-1.99,1.4-1.99,2.82,0,2.9-.31,5.84.96,8.59,1.25,2.7,1.04,5.69,1.83,8.49.6,2.13-.78,3.62-2.7,4.01-1.79.36-2.15-1.31-2.73-2.72-2.33-5.73-3.58-11.69-4.03-17.82-.64-8.69-1.57-17.34-3.42-25.86-.55-2.5-.92-5.44-4.86-5.27-1.82.08-2.55-1.63-2.94-3.38-2.34-10.53-2.57-21.02-1.13-31.77.85-6.32.13-12.94-1.23-19.29-3.04-14.13-5.93-28.29-9.89-42.2-.3-1.05-.98-2.3-.08-3.06,1.52-1.27,2.02.69,2.94,1.32.5.34.99.33,1.87-.24Zm28.73,107.1c4.41.58,6.01-2.42,7.71-4.83,6.23-8.86,13.12-17.18,20.4-25.16,5.38-5.89,10.16-12.23,14.97-18.56,9.79-12.88,15.56-27.7,19.83-43.13,2.91-10.53,4.02-21.36,4.28-32.25.11-4.68-1.16-5.72-5.67-5.48-1.81.1-3.64.22-5.41.57-5.31,1.04-10.65,1.8-15.93,3.12-5.02,1.26-10.32,1.82-15.46,2.84-5.5,1.09-11.09,1.89-16.42,3.55-2.8.87-5.06,1.66-8.2.97-10.23-2.24-14.17,1.96-11.95,12.1.04.18.15.34.18.51,1.25,6.19,1.54,12.46,1.23,18.74-.28,5.57-.96,11.11.91,16.55.61,1.77.35,3.59.13,5.4-.18,1.43-.49,2.9-.33,4.31.94,8.46,1.94,16.93,1.96,25.45.02,9.75,4.29,18.56,6.14,27.9.45,2.29,1.7,4.6,1.63,7.38Zm-15.46-96.91c-.28-6.54,1.34-12.02-2.12-17.29-3.77,4.24-3.23,9.54,2.12,17.29Zm10.26,90.35c-.04,4.66-1.65,9.78,3.68,14.05.46-5.66-.4-10.1-3.68-14.05Zm-10.99-12.86c.61-2.98.21-5.79-1.28-9.41-.24,3.9-.75,6.83,1.28,9.41Zm85.92-78.04c.59-1.75,2.2-3.5.29-5.82-.72,2.27-1.68,3.95-.29,5.82Zm-92.19-13.16c-.39-.62-.85-1.21-1.65-1.12-.83.09-1.28.64-1.09,1.5.13.58.59.87,1.18.73.65-.15,1.4-.22,1.56-1.11Zm7.52,25.88c-.1-.59-.45-.99-1.03-.89-.18.03-.36.56-.39.87-.05.54.13,1.11.75,1.12.68.02.7-.58.67-1.1Z"/>
  <path d="m725.61,224.06c13.86.94,26.53-.56,39.04,1.73,5.34.98,10.66,1.99,15.97,3.15,12.5,2.72,24.8,6.06,37.78,7.01,12.43.91,25.03.79,37.36,3.26,8.67,1.73,17.03,3.92,22.23,12.02.39.61.79,1.3,1.37,1.68,2.11,1.43,4.28,2.72,4.62,5.63.38,3.3.72,6.87-.94,9.63-6.12,10.19-10.35,21.48-18.63,30.44-3.4,3.68-7.34,6.58-11.29,9.25-11.25,7.62-22.06,15.83-33.26,23.52-10.6,7.28-20.94,14.9-32.43,20.86-12.03,6.24-23.57,13.4-35.48,19.88-12.2,6.64-24.62,12.87-36.87,19.42-6.23,3.33-12.3,6.98-18.44,10.49-2.09,1.19-3.65,3-5.17,4.78-1.44,1.68-3.27,2.88-4.77,4.44-1.17,1.22-2.44,1.66-3.76.33-1.15-1.17-.47-2.21.33-3.35,3.59-5.12,8.05-9.21,13.6-12.13,18.9-9.95,38.24-19.04,56.59-30.07,10.68-6.42,22.08-11.61,32.84-17.97,12.8-7.57,24.99-15.95,36.84-24.95,6.01-4.56,12.33-8.83,18.42-13.34,10.11-7.49,18.96-16.22,24.91-27.52,2.53-4.8,4.85-9.73,7.66-14.36,2.95-4.87,2.22-9.23-.76-13.62-2.72-4.01-6.18-6.4-11.03-8.04-11.19-3.79-22.75-3.88-34.22-5.16-14.93-1.66-29.92-2.92-44.37-7.55-5.85-1.88-12.02-2.53-18.1-3.51-16.29-2.62-32.55-.52-48.81.1-5.49.21-10.42,2.57-15.39,4.57-1.39.56-2.72.87-4.15,1.02-2.06.22-2.85-1.25-3.61-2.73-.79-1.54-.27-2.8.92-3.89,1.38-1.26,2.92-2,4.85-2.13,3.61-.25,7.16-1.24,10.8-1.02,5.13.32,9.07-2.01,12.39-5.56,5.5-5.87,12.5-9.09,19.85-11.85,5.75-2.16,11.46-4.48,17.07-6.98,9.93-4.43,20-8.37,30.24-12.06,9.31-3.36,18.81-6.45,27.85-10.39,10.09-4.39,20.62-7.72,30.47-12.66,2.73-1.37,5.2-3.12,7.49-5.05-.71-1.53-1.92-1.22-2.92-1.19-12.5.42-24.98.92-37.47,1.92-11.71.95-23.47,1.53-35.17,2.73-9.51.97-19.1,1.33-28.53,3.04-1.24.22-2.54.17-3.81.12-11.29-.45-22.37,1.41-33.52,2.76-8.45,1.02-16.91,1.98-25.41,2.66-13.54,1.08-27.2,1.04-40.59,3.53-7.69,1.43-14.74,4.89-21.95,7.79-2.01.81-3.91,1.96-6.19,1.87-1.76-.07-3.28-.47-3.62-2.53-.36-2.21.24-4.44,2.48-4.8,12.15-1.96,23.49-7.13,35.93-8.24,7.88-.7,15.93-.34,23.71-2.37,2.25-.59,4.69.03,7.01.1,10.21.33,20.15-1.88,30.22-2.72,8.29-.69,16.56-1.54,24.86-2.02,9.8-.57,19.46-2.4,29.22-3.14,10.67-.81,21.23-2.59,31.98-2.75,7.55-.11,15.09-1.22,22.64-1.85,9.03-.76,18.06-1.49,27.14-1.04,5.07.25,10.15.54,15.22.75,1.8.07,3.23.62,3.79,2.47.53,1.74-.64,2.71-1.85,3.57-1.03.73-2.05,1.57-3.21,2-10.89,3.97-21.15,9.42-31.9,13.72-13.62,5.45-27.49,10.19-41.28,15.17-6.14,2.22-12.01,5.12-18.03,7.57-10.4,4.23-20.36,9.5-30.94,13.25-6.24,2.21-11.29,6.18-17.82,10.31Z"/>
  <path d="m73.86,284.18c.75,1.37,1.21,2.92,2.68,2.74,3.16-.39,6.04,1.15,9.1,1.1,8.53-.14,16.87,1.59,25.2,2.89,4.85.76,9.46,3.33,14.04,5.39,7.76,3.49,15.85,6.07,23.78,9.08,3.04,1.15,5.91,2.72,8.84,4.15.81.39,1.81.76,2.27,1.44,3.23,4.84,7.98,8.37,11.14,13.29,4.82,7.49,4.31,14.85.54,22.54-3.17,6.48-6.65,12.85-11.18,18.36-3.47,4.22-8.25,7.38-12.16,11.33-1.9,1.92-3.73,3.89-5.54,5.89-2.89,3.2-6.94,5.09-10.71,7.13-8.4,4.54-17.01,8.51-26.03,11.86-6.99,2.6-13.87,6.01-20.76,9.11-5.5,2.47-10.92,5.27-16.82,6.9-4.17,1.15-8.42,2.35-12.01,4.93-2.55,1.84-6.31.2-8.41,3.12-9.4,2.62-17.69,7.96-26.91,11.09-3.8,1.29-7.65,2.86-11.14,5.15-2.84,1.86-6.04,3.31-9.77,2.18-.15-3.87,1.69-6.18,5.21-7.22,7.94-2.35,15.38-6.08,23.46-8.1,3.42-.85,6.69-2.73,9.75-4.4,5.57-3.04,11.6-4.82,17.37-7.19,8.82-3.62,17.66-7.24,26.55-10.74,6.17-2.43,11.95-5.89,18.17-8.19,3.38-1.25,6.53-2.96,9.92-4.14,7.06-2.46,13.43-6.36,19.11-11.02,7.24-5.93,14.72-11.64,21.19-18.47,7.15-7.55,12.95-15.86,15.01-26.3.17-.88.47-1.92.18-2.69-2.58-6.87-4.06-14.57-10.09-19.36-3.58-2.84-7.93-5.01-12.5-6.33-6.79-1.96-13.35-4.39-19.77-7.47-8.15-3.91-16.89-6.18-26.05-6.86-5.38-.4-10.64-2.06-16.12-1.87-1.08.04-2.27-.35-3.24-.04-4.51,1.43-8.73,1.33-13.07-.91-2.78-1.43-6.01-.44-8.94.2-1.52.33-2.77,1.49-2.85,3.5-.54,12.42.56,24.81.11,37.24-.59,16.29,1.84,32.5,2.04,48.79,2.4,4.78.89,10.26,2.78,15.19.75,1.96.55,4.29.72,6.45.06.69.03,1.52-.78,1.81-.92.34-1.79.05-2.48-.63-.26-.25-.59-.57-.61-.88-.27-4.13-2.31-7.8-2.96-11.84-1.19-7.42-1.23-14.96-2.68-22.37-.71-3.61-.34-7.48-.19-11.22.26-6.49-.2-12.96-.32-19.44-.12-6.49.16-13-.15-19.49-.32-6.45.21-12.93.42-19.31.31-9.14-1.16-18.28.37-27.44.58-3.44-.67-7.16-.88-10.77-.15-2.68-.4-5.4.38-8.06.37-1.26.99-2.57,2.32-2.77,1.79-.28,2.3,1.49,3.02,2.65.71,1.13.31,2.44.23,3.71-.45,7.02-.8,14.04-1.13,21.06-.07,1.44-.27,3.05.27,4.29.48,1.09,1.22,2.9,3.21,2.12,4.18-1.65,8.67-2.22,12.85-3.92,4.84-1.97,9.77-3.8,14.79-5.24,10.5-3.01,20.79-6.64,30.99-10.49,6.57-2.48,13.37-4.48,19.53-7.95,2.24-1.26,6.08-1.87,5.68-4.87-.33-2.52-4.07-2.35-6.42-3.04-10.3-3.05-21-3.1-31.55-4.3-8.28-.95-16.59-1.23-24.87-2.02-6.65-.63-13.37-.63-20.06-1.14-6.81-.53-13.66-.96-20.49-.87-4.88.07-9.74.41-14.61-.2-1.43-.18-3.15.16-3.75-1.52-.69-1.95.97-2.76,2.2-3.86,2.22-1.98,4.84-1.61,7.23-1.19,9.3,1.62,18.72,1.65,28.09,2.38,6.99.54,13.98.83,20.98,1.09,11.83.44,23.64,1.7,35.4,3.06,4.28.49,8.44,1.7,12.85,1.12,2.24-.3,3.93,1.65,6.06,2.23,4.86,1.32,9.8,2.32,14.52,4.17,1.79.71,3.52,1.35,3.86,3.34.33,1.95-.82,3.48-2.36,4.6-1.02.74-2.08,1.47-3.22,2-8.65,4.09-17.25,8.26-26.01,12.1-2.94,1.29-6.29,1.63-9.43,2.48-8.34,2.24-16.57,4.81-24.56,8.09-3.38,1.39-7.25.64-10.85,2.78Z"/>
  <path d="m1130.57,295.24c1.25-8.3-.64-16.03.24-23.83.51-4.49-.77-9.34-.87-14.03-.17-7.73-1.33-15.36-2.09-23.03-.71-7.15-1.41-14.34-3.87-21.23-.86-2.4-1.64-2.89-3.78-1.5-8.06,5.25-17.07,8.61-25.6,12.91-8.53,4.3-17.03,8.75-25.05,14.01-4.53,2.97-9.18,5.77-13.86,8.5-1.87,1.09-3.9,1.99-5.97,2.59-2.25.64-4.47-.79-5.13-2.87-.73-2.31.13-4.23,2.41-5.36.32-.16.68-.25,1.04-.33,9.95-2.11,18.06-8.18,26.95-12.56,9.56-4.71,19.17-9.33,28.66-14.18,12.7-6.48,26.01-11.61,38.71-18.15,13.01-6.69,26.46-12.66,40.09-18,14.24-5.58,27.98-12.25,41.97-18.34,14.38-6.26,29.05-11.93,42.97-19.23,1.2-.63,2.74-1.64,3.5.57.7,2.02-.34,3.08-2.23,3.53-.18.04-.35.11-.53.12-6.19.61-10.67,4.65-15.59,7.8-3.36,2.16-7.32,2.87-10.93,4.47-7.73,3.42-15.3,7.22-23.11,10.4-5.16,2.11-9.91,5.29-15.54,6.33-3.03.56-5.46,2.73-8.26,3.83-5.7,2.22-10.89,5.59-16.57,7.68-10.18,3.74-19.7,8.91-29.72,12.95-5.01,2.02-9.3,5.55-14.84,6.55-1.9.34-2.74,2.74-2.52,4.95.65,6.78-.43,13.76,2.41,20.29.14.33.29.7.26,1.04-1.02,10.54,2.4,20.82,1.86,31.31-.52,10.25.45,20.46.38,30.69-.06,8.98,1,17.95,2.92,26.73.6,2.72,1.77,5.44,2.69,8.16.35,1.03.91,2.07.89,3.1-.03,1.78-.1,3.81-2.41,4.35-1.97.45-4.3-1.13-4.71-3.41-.94-5.34-1.83-10.69-2.5-16.07-.79-6.4-1.32-12.83-1.98-19.25-.07-.71-.27-1.41-.29-1.52Z"/>
  <path d="m345.26,367.44c-2.33-.27-4.18-.63-4.62-2.83-.39-1.94,2.11-5.84,4.02-5.87,9.46-.18,14.41-6.78,19.91-13.09,7.62-8.75,6.55-19.13,6.42-29.38-.08-6.19-2.61-11.99-3.33-18.1-.08-.71-.32-1.42-.59-2.09-2.18-5.38-4.63-6.33-9.13-2.83-7.22,5.6-15.73,9.78-20.5,18.2-1.26,2.22-3.46,2.41-5.75,1.67-3.4-1.1-4.08-3.14-2.14-6.23,1.1-1.75,2.69-3.06,4.44-3.93,7.83-3.87,14.17-9.99,21.8-14.18,6.64-3.64,12.79-8.25,19.41-11.76,9.2-4.88,17.99-10.46,27.26-15.23,9.33-4.81,18.78-9.3,28.29-13.69.99-.46,1.97-.93,2.99-1.29,1.07-.38,2.15-.4,2.99.55.81.91.83,1.98.48,3.06-.65,2.02-2.04,3.38-3.94,4.27-3.74,1.76-7.45,3.55-11.19,5.3-.63.3-1.37.69-2.01.62-3.92-.46-6.95,1.62-10.13,3.34-9.52,5.15-19.07,10.24-28.59,15.39-1.43.77-2.81,1.66-4.15,2.59-.9.62-2.07,1.61-1.63,2.61,1.31,3.03-.4,6.1.5,9.11,2.47,8.23,3.01,16.89,3.14,25.25.2,12.18-2.73,23.91-11.86,33.26-5.36,5.49-11.2,10.13-17.98,13.63-1.43.74-2.99,1.21-4.12,1.66Z"/>
  <path d="m423.32,295.23c-4.95.61-8.04,3.46-11.17,5.94-2.67,2.11-4.92,4.77-7.28,7.25-.9.95-1.88,1.74-3.11,2.12-1.95.61-3.95,1.01-5.46-.94-1.45-1.87-1.38-4.68.26-6.54.7-.8,1.58-1.61,2.55-1.96,6.87-2.5,12.52-7.17,18.91-10.51,1.46-.76,2.81-1.93,3.43-3.41,1.17-2.8,3.3-3.44,6.01-3.77,4.82-.58,8.46-3.97,12.74-5.88,5.76-2.57,11.34-5.54,17.05-8.23,4.24-2,8.42-4.08,12.85-5.63,1.9-.66,4.14-1.65,5.27.65.99,2.02.37,4.41-1.52,5.9-1.98,1.56-4.21,2.82-6.34,4.19-.77.5-1.79,1.08-2.51.44-2.77-2.44-4.96-.58-7.38.65-7.1,3.63-14.12,7.46-21.43,10.6-5.44,2.34-7.95,6.5-8.16,11.76-.53,13.38-1.18,26.77-.51,40.17.02.36-.04.73.02,1.09.51,3.06,1.43,3.57,4.43,2.63,5.53-1.74,10.81-4.16,16-6.67,2.99-1.45,6.15-2.12,9.25-3.07,1.59-.48,3.47-.66,4.3,1.2.93,2.05.21,3.88-1.68,5.19-2.42,1.69-5.05,2.94-8.02,3.02-3.74.09-7.03,1.3-10.28,3.06-4.13,2.23-8.78,3.23-12.99,5.42-8.95,4.65-18.21,8.73-26.18,15.09-1.26,1-2.74,1.88-4.26,2.37-2.16.69-4.01-.26-5.01-2.23-.92-1.82-.45-3.56,1.3-4.77.73-.51,1.5-1,2.33-1.31,6.81-2.53,12.76-6.8,19.37-9.66,5.31-2.3,5.59-6.71,5.58-11.1-.02-8.09-.71-16.16.3-24.25.76-6.07-.21-12.24,1.34-18.82Z"/>
  <path d="m907.66,336.55c-.3-3.26-.24-6.53.52-9.71.6-2.51.35-4.22-2.11-5.95-4.2-2.97-3.99-6.13.44-8.85,2.36-1.45,2.94-3.21,3.32-5.71.93-6.11.75-12.28,1.48-18.39.13-1.07.19-2.28-.89-2.94-1.17-.72-2.04.22-2.86.88-1.84,1.47-3.73,2.89-5.43,4.52-1.55,1.49-3.25,2.19-5.39,2.03-2.61-.2-4.3-1.55-4.46-3.81-.16-2.3.93-3.69,3.16-4.42,7.77-2.55,14.85-6.61,21.58-11.1,10.45-6.96,21.64-12.47,32.96-17.71,6.9-3.19,13.59-6.78,20.48-9.98,1.94-.9,3.66-1.85,5.38.01,1.29,1.39.68,4.88-1.3,6.28-3.04,2.15-5.9,5-10.28,3.69-1.21-.36-2.47.11-3.61.84-7.6,4.92-15.9,8.5-24.07,12.32-5.43,2.54-10.53,5.64-15.45,9.03-1.51,1.04-3.23,2.19-3.22,4.14.03,4.75-1.94,9.2-1.82,13.98.07,2.86-.87,5.73-.9,8.6-.04,4.1.84,4.53,4.37,2.72,3.53-1.82,7.03-3.69,10.57-5.49,1.27-.65,2.47-1.48,4.04-1.44,3.2.08,4.55,2.14,3.16,5.06-.95,2.01-2.56,3.41-4.18,4.91-1.94,1.79-3.7,1.24-5.94,1.04-6.8-.62-14.35,7.12-14.13,13.98.07,2.17,0,4.35,0,6.52,0,3.43.74,4.15,4.21,3.64,4.61-.69,8.39-3.29,12.12-5.84,1.55-1.05,3.05-1.96,4.94-2.01,2.03-.06,3.71.67,3.94,2.86.2,1.92.33,3.77-2.33,4.77-7.1,2.66-13.87,6.06-20.21,10.27-1.72,1.14-3.5,2.87-5.9,1.3-2.1-1.37-2.48-3.37-2.24-5.69.15-1.43.03-2.89.03-4.34Z"/>
  <path d="m235.15,303.14c-8.31,4.49-16.17,8.53-22.89,14.37-2.07,1.8-3.56,4.04-2.58,7.22.4,1.3.44,3.21-.25,4.26-3.59,5.43-1.37,11.16-1.2,16.77.05,1.82.35,3.66-.06,5.42-1.29,5.61.13,11.17.28,16.74.1,3.61,1.67,4.58,5.41,4.3,1.27-.1,2.49-.32,3.63-1.01,7.92-4.72,16.19-8.72,24.84-11.97,3.88-1.45,7.54-3.48,11.34-5.14,1.97-.86,4.44-2.06,5.87.31,1.76,2.92-1.15,4.14-3.01,5.39-2.67,1.79-5.71,3.31-8.6,4.29-5.5,1.88-10.66,4.36-15.98,6.58-8.05,3.36-15.56,7.44-22.67,12.43-2.96,2.08-6.03,3.96-8.71,6.44-.89.83-2.16,1.37-3.35,1.73-1.74.53-5.63-1.14-6.18-2.6-.68-1.81.36-3.24,1.55-4.34,1.53-1.4,2.61-3.08,5-3.83,3.35-1.06,5.53-3.72,5.5-7.83-.11-13.24.02-26.48-.05-39.72,0-1.5.79-3.56-.93-4.48-2.03-1.1-3.18,1.09-4.69,1.93-1.68.93-2.3,2.8-3.6,4.01-1.42,1.31-2.99,2.85-5.2,2.35-1.31-.3-2.13-1.35-2.22-2.78-.16-2.35.46-4.27,2.79-5.38,2.48-1.18,4.5-3.02,6.59-4.77,9.97-8.38,21.02-15.26,31.85-22.43,2.8-1.85,5.98-3.23,9.15-4.37,2.09-.75,3.99-1.65,5.76-2.93,2.41-1.74,5.13-2.67,8.09-2.88,1.49-.11,3-.08,3.73,1.54.73,1.6.68,2.98-.84,4.36-3.22,2.91-5.81,6.41-8.59,9.74-1.52,1.82-2.91,4.43-6.03,3.63-2.43-.62-2.95-1.72-3.74-7.34Z"/>
  <path d="m976.31,327.31c.09,1.81.32,3.63.22,5.43-.13,2.33-2.37,3.41-4.2,2.01-1.63-1.25-2.76-2.97-2.37-5.17.25-1.39,1.28-3.05-.32-3.89-1.46-.76-2.58.88-3.65,1.74-1.09.89-2.32,1.35-3.52.83-1.73-.76-3.9-.96-4.62-3.31-.8-2.62.7-4.14,2.4-5.56,1.11-.93,2.3-1.78,3.55-2.49,7.89-4.45,8.13-7.12,4.55-15.36-1.08-2.47-.47-3.72,1.28-5.03,2.84-2.13,5.87-1,6.34,2.57.3,2.3-.14,4.69-.16,7.03-.03,2.85,1.84,4.12,4.14,2.44,4.38-3.2,9.36-5.49,13.42-9.16,1.47-1.33,1.73-2.42,1.02-4.22-1.46-3.71-3.01-7.38-5.07-10.78-2.91-4.79-6.06-5.07-10.02-1.04-1.62,1.66-2.81,3.91-5.66,3.65-1.41-.13-3.13.26-3.71-1.53-.51-1.58-.56-3.38.83-4.55,3.58-3.02,7.19-6.03,10.98-8.77,2.1-1.52,6.85-.03,8.79,2.35,3.81,4.69,6.3,10.1,8.66,15.59,1.67,3.88,1.86,4.01,5.42,2.07,3.17-1.73,6.17-3.77,9.25-5.66.77-.48,1.5-1.08,2.33-1.38,1.36-.48,3.07-1.06,3.97.43,1.01,1.65-.71,2.56-1.73,3.49-.94.85-1.91,1.96-3.04,2.24-4.39,1.09-6.77,5.28-10.91,6.74-2.11.74-2.24,2.48-1.69,4.49,1.55,5.68,4.07,11.05,5.28,16.86.32,1.51,1.29,3.08,2.4,4.2,3.65,3.7,2.88,7.88,1.69,12.17-.49,1.77-1.61,2.77-3.59,2.58-1.83-.17-2.48-1.45-2.64-2.95-1.06-9.78-5.99-18.49-7.72-28.11-.62-3.45-1.62-3.69-4.31-1.76-4.84,3.45-9.48,7.18-14.38,10.55-4.3,2.96-3.56,7.11-3.21,11.26Z"/>
  <path d="m287.2,318.96c6.54-7.28,10.07-16.09,12.64-25.38.28-1.02.74-2.1,1.42-2.89,1.47-1.72,3.54-1.76,5.53-1.25,1.85.48,1.63,2.15,1.59,3.6-.1,3.25-.11,6.51-.35,9.75-1.07,14.64-.33,29.33-1.16,44-.49,8.57-1.63,17.38.57,26,.27,1.04.09,2.44.72,3.11,2.76,2.93.17,4.66-1.43,6.33-1.65,1.73-4.38,1.01-5.27-1.21-.53-1.32-1.04-2.82-.95-4.2.85-12.98.36-26.03,1.74-38.98,1.13-10.64.42-21.24-.11-31.76-1.73-.7-2.03.59-2.65,1.41-1.93,2.54-2.54,6.1-5.89,7.55-.55.24-.63.94-.42,1.44,1.47,3.49-1.15,6.25-1.68,9.38-.38,2.25-1.75,4.14-4,4.78-2.46.7-2.7,2.3-2.96,4.45-1.17,9.68-1.69,19.44-3.43,29.06-.81,4.48-1.1,8.95-.13,13.49.7,3.3-.47,5.12-2.91,5.36-2.66.26-4.37-1.63-4.34-4.97.02-1.62-.04-3.33.43-4.85,2.86-9.27,2.44-19.02,4.27-28.39,1.56-8,.99-16.18,2.9-24.09.29-1.19.28-2.58,0-3.77-1.35-5.61-.37-11.2-.05-16.79.14-2.4.81-4.8,3.72-5.31,1.67-.29,3.7,2.78,3.76,5.78.07,3.86-1.37,7.47-2.12,11.19-.51,2.55-.98,4.97.59,7.17Z"/>
  <path d="m1068.81,297.8c-7.86-.37-14.7-.53-21.51-1.08-3.2-.26-6.36-1.18-9.5-1.96-2.11-.52-2.89-2.6-4.2-4.05-1.88-2.08-.15-3.31.68-5.14,1.59-3.52,4.46-5.1,7.43-7.07,6.78-4.49,13.34-9.32,20.6-13.07.48-.25.85-.71,1.34-.92,1.89-.81,5.8.19,6.42,1.59.63,1.43-1.33,4.99-3.47,5.44-7,1.47-12.14,6.3-18.17,9.5-2.74,1.46-2.24,3.91-3.12,5.92-.61,1.38,1.01,1.64,1.91,2.07,4.59,2.18,9.46,1.98,14.39,1.91,8.52-.13,16.91,1.39,25.27,2.82,1.38.24,3.37,1.37,2.9,2.72-.8,2.31.64,4.89-1.45,7.03-4.89,5.02-9.45,10.34-14.76,14.99-6.54,5.73-13.15,11.45-20.37,16.17-8.95,5.85-17.9,11.65-26.46,18.06-1.78,1.34-3.84.81-5.8.81-.93,0-1.85-.21-2.05-1.33-.18-.97.18-1.82.99-2.36,2.4-1.61,4.86-3.1,7.2-4.82,8.91-6.55,18.3-12.39,27.64-18.31,4.14-2.62,7.54-6.13,11.09-9.43,4.47-4.15,9.74-7.43,13.31-12.57,2.13-3.08,1.97-2.94-.88-5.18-3.31-2.6-7.02-1.09-9.42-1.73Z"/>
  <path d="m681.7,287.5c.11,4.51.94,8.95,1.25,13.46.8,11.95,3.3,23.67,5.54,35.4.74,3.86,2.01,7.69,3.15,11.5.88,2.92,2.14,5.71,4.89,7.64,2.88,2.02,2.98,5.23,2.59,8.38-.28,2.24-2.06,3.12-3.88,1.76-1.56-1.16-3.23-2.61-4.01-4.32-2.95-6.41-5.26-13.1-6.77-19.99-2.79-12.75-4.8-25.65-5.7-38.65-.57-8.12-1.61-16.2-2.58-24.24-.77-6.42-1.35-12.9-2.35-19.32-1.9-12.17-3.07-24.45-4.56-36.68-.48-3.96-1-7.91-1.57-11.86-.12-.87-.29-1.88-.81-2.52-4.59-5.62-4.83-6.49-2.74-12.71.31-.92.14-1.72.01-2.62-.45-3.24,1.14-5.24,4.11-5.36,1.9-.08,3.2.7,3.46,2.66.17,1.25.31,2.56.15,3.8-1.48,10.78,1.62,21.2,2.46,31.79.67,8.46,2.47,16.78,3.15,25.25.55,6.84,1.83,13.63,2.64,20.45.64,5.39,1.06,10.8,1.57,16.2Z"/>
  <path d="m598.03,317.95c-.59-1.19-1.09-1.95-1.36-2.78-1.04-3.28-.42-5.3,2.8-5.78,3.61-.53,4.8-2.89,6-5.51,2.64-5.73,6.54-10.9,7.73-17.3.3-1.61,1.58-1.85,2.96-1.54,2.45.56,3.61,2.37,4.03,4.64.39,2.14.41,4.34.78,6.48.68,3.92,2.05,4.76,5.54,3.06,2.32-1.13,4.83-1.48,7.18-2.4.65-.25,1.48,0,1.83.74.33.72.14,1.57-.43,2-1.3.96-2.72,1.76-4.11,2.6-1.7,1.03-3.36,2.16-5.14,3.04-1.95.97-1.94,2.18-1.15,3.98,1.66,3.82,3.17,7.7,5.25,11.32,1.18,2.05,2.36,4.19,2.44,6.58.07,2.14.04,4.54-2.72,5.31-2.2.62-4.65-1.18-5.47-4-1.47-5.03-2.88-10.08-4.36-15.11-1.2-4.06-1.49-4.16-4.96-2.17-1.1.63-2.19,1.28-3.35,1.79-4.33,1.92-7.62,4.61-8.68,9.61-.56,2.63-1.85,5.11-2.85,7.64-.61,1.54-1.54,2.83-2.88,3.88-1.5,1.16-3.13,1.12-4.62.44-1.64-.74-2.37-2.43-1.97-4.12.74-3.17,1.78-6.27,2.72-9.4.64-2.13,2.74-2.1,4.81-3.02Zm17.18-19.78q-4.58,2.42-3.83,7.12c5.31-1.31,5.66-1.97,3.83-7.12Z"/>
  <path d="m148.05,95.3c1.67-.04,4.91,3.63,4.2,5.35-3.07,7.42.56,14.19,1.9,21.1,1.16,5.93.51,11.79.3,17.64-.1,2.83-2.27,4.72-5.41,6-6.31,2.57-13.3,2.52-19.4,5.94-3.88,2.18-8.85,1.37-13.07,3.26-1.69.76-3.56-.25-4.86-1.71-1.82-2.05-1.44-3.95,1.01-5.22,3.35-1.74,7.11-1.57,10.65-1.8,6.61-.42,12.32-3.29,18.24-5.63.98-.39,1.78-1.1,2.9-1.37,4.25-1.05,4.82-1.91,5.03-6.22.2-4.21-1.17-8.2-1.64-12.32-.69-6.07-1.54-12.13-4.38-17.84-2.15-4.32-.04-7.07,4.53-7.18Z"/>
  <path d="m176.55,136.54c1.94.1,4.32-.19,6.3-1.61,1.84-1.31,4-1.65,6.03-2.33,3.28-1.09,4.26-.59,4.99,2.04.87,3.14,0,4.99-2.89,5.96-5.17,1.73-10.65,1.86-15.93,3.09-1.21.28-2.46.48-3.67.83-3.63,1.05-4.92.24-5.54-3.51-.27-1.6-.25-3.24-.45-4.86-1.73-14.27-3.48-28.53-5.22-42.79-.41-3.39,2-5.64,5.23-4.78,2.04.55,3.26,1.85,2.41,4.01-1.95,4.97-.93,10.01-.54,15.03.66,8.41,1.93,16.73,3.78,24.96.91,4.07,1.05,4.03,5.5,3.96Z"/>
  <path d="m148.56,179.64c.68-4.57-.62-9.01-1.16-13.47-.57-4.7-3.17-5.93-7.69-4.57-5.1,1.52-9.64,4.08-13.95,7.07-1.22.85-2.37,1.52-3.88,1.74-1.98.28-3.64.37-4.12-2.15-.41-2.19-.29-3.92,2.4-4.56,3-.7,5.58-2.73,8.34-3.61,5.5-1.75,10.44-4.5,15.61-6.83.97-.44,2.07-.65,3.13-.85,3.67-.68,6.01.73,5.8,4.35-.31,5.58,2.87,10.9.93,16.51,2.15,3.55.93,7.93,2.75,11.5,1.23,2.42.33,4.46-.31,6.69-.51,1.77-1.83,2.27-3.29,2.27-1.76,0-3.11-.89-3.49-2.81-.75-3.72-1.91-7.39-1.07-11.27Z"/>
  <path d="m169.93,172.77c.41-2.99.32-7.35-1.37-11.78-1.37-3.59,1.01-6.83,5.34-6.96,7.79-.23,15.3-2.87,23.16-2.36,1.71.11,3.21.27,4.53,1.36,1.62,1.34,1.99,2.99,1.08,4.85-.83,1.71-2.21,1.28-3.73,1.01-5.58-.98-11.16-.93-16.73.33-4.6,1.04-6.71,3.39-6.76,8.27-.06,5.63,1.11,11.12,1.98,16.65.27,1.72,1.32,2.86,2.36,4.14,1.14,1.41,1.1,3.27-.56,4.28-1.43.88-3.17,2.04-4.91.26-1.55-1.58-2.57-3.34-3.11-5.58-1.04-4.28-.94-8.62-1.29-14.47Z"/>
  <path d="m241.52,328.44c.1,3.93-4.44,9.52-8.5,9.8-4.59.31-7.63,2.65-10.35,6.04-2.23,2.78-4.46,5.73-8.27,6.63-1.44.34-2.81.64-3.91-.8-1.24-1.62-.68-3.02.36-4.41.43-.58.82-1.34,1.42-1.61,6.5-2.98,10.44-9.32,16.68-12.65,3.01-1.61,5.78-3.65,8.82-5.2,1.99-1.02,3.71.17,3.77,2.2Z"/>
  <path d="m197.9,100.84c-1.8,2.01-3.53,3.83-5.1,5.77-.53.65-1.01,1.6-.52,2.51.51.96,1.42.86,2.35.66.87-.18,1.87-.54,2.62-.28,1.53.53,2.39,1.81,1.38,3.35-1.22,1.84-3.08,2.99-5.17,3.71-2.34.81-3.57-.61-4.86-2.27-1.35-1.75-4.6-2.02-4.29-5.03.31-2.98,3.07-4.3,4.93-6.15,1.24-1.24,3-1.95,4.51-2.94,1.38-.91,2.65-.97,4.16.67Z"/>
  <path d="m631.34,40.38c-.16-.8-.38-1.22-.26-1.44,4.09-6.96,7.82-14.16,12.86-20.53.32-.41.81-.71,1.27-.98,1.23-.72,2.49-.8,3.36.46.67.96.59,2.08-.32,2.96-2.19,2.15-4.43,4.25-6.09,6.88-.28.45-1,.71-1.12,1.16-1.36,5.2-5.82,7.76-9.71,11.48Z"/>
  <path d="m135.35,193.11c-1.63,1-2.17,2.83-3.26,4.24-1.61,2.09-3.48,3.6-6.51,3.62-1.19-4.9,1.39-8.68,3.53-12.47.97-1.72,2.99-3.28,4.91-2.49,2.64,1.08,3.39,3.54,2.2,6.33-.29.25-.58.51-.87.76Z"/>
  <path d="m119.5,128.86c-2.23-.35-4.38-.62-6.5-1.03-1.41-.27-2.15-1.34-2.35-2.69-.24-1.64,1.12-2.41,2.23-2.65,4.03-.89,7.87.42,11.6,1.7,1.52.52,1.4,2.12.04,2.98-1.53.96-3.28,1.5-5.02,1.69Z"/>
  <path d="m135.35,193.11c.29-.25.58-.51.87-.76,1.73-.13,3.5-2.38,4.96-.91,1.67,1.68.7,4.04-.32,5.96-.77,1.44-1.4,2.85-1.43,4.53-.03,1.89-1.03,3.23-2.99,2.84-1.98-.4-2.2-2.17-1.82-3.87.56-2.57,1.77-5.07.73-7.78Z"/>
  <path d="m201.58,179.03c-2.27.18-4.25-1.21-6.22-2.4-1.35-.82-2.87-2.01-1.71-3.91,1.16-1.9,3.31-2.77,5.13-1.72,2.28,1.32,4.29,3.26,6.07,5.24,1.21,1.35-.44,2.88-3.27,2.79Z"/>
  <path d="m193.3,185.92c-.15,1.2-.08,2.38-1.41,2.78-1.09.32-2.14.3-2.86-.76-1.2-1.77-2.41-3.54-3.54-5.35-1.11-1.78-.21-3.1,1.22-4.12,1.45-1.04,2.72-.4,3.82.71,1.89,1.9,2.1,4.49,2.77,6.74Z"/>
  <path d="m120.64,115.5c-1.63-.06-2.78-.74-2.96-2.48-.15-1.49.73-2.24,2.02-2.78,1.7-.71,3.42-.95,5.24-.78,1.14.1,2.26.37,2.51,1.55.23,1.09-.47,1.98-1.32,2.77-1.59,1.45-3.45,1.8-5.48,1.73Z"/>
  <path d="m1277.21,139.66c.03,1.07-1.09,1.21-2.2,1.19-.71,0-1.59-.31-1.27-1.23.36-1.06,1.33-1.72,2.42-1.88.98-.14,1.05.68,1.05,1.91Z"/>
</svg>